{
    "asset" : {
        "generator" : "Khronos glTF Blender I/O v1.1.46",
        "version" : "2.0"
    },
    "scene" : 0,
    "scenes" : [
        {
            "name" : "Scene",
            "nodes" : [
                0
            ]
        }
    ],
    "nodes" : [
        {
            "mesh" : 0,
            "name" : "Cube",
            "scale" : [
                -0.2550012767314911,
                2.130110025405884,
                -1.312018632888794
            ],
            "translation" : [
                -0.013101935386657715,
                0,
                0
            ]
        }
    ],
    "materials" : [
        {
            "doubleSided" : true,
            "emissiveFactor" : [
                0,
                0,
                0
            ],
            "name" : "Material.003",
            "pbrMetallicRoughness" : {
                "baseColorFactor" : [
                    0.7835381627082825,
                    0.07227172702550888,
                    0.015208534896373749,
                    1
                ],
                "metallicFactor" : 0,
                "roughnessFactor" : 0.5
            }
        },
        {
            "doubleSided" : true,
            "emissiveFactor" : [
                0,
                0,
                0
            ],
            "name" : "Material.005",
            "pbrMetallicRoughness" : {
                "baseColorFactor" : [
                    0.8796226978302002,
                    0.1301364004611969,
                    0.017641976475715637,
                    1
                ],
                "metallicFactor" : 0,
                "roughnessFactor" : 0.5
            }
        },
        {
            "doubleSided" : true,
            "emissiveFactor" : [
                0,
                0,
                0
            ],
            "name" : "Material.004",
            "pbrMetallicRoughness" : {
                "baseColorFactor" : [
                    0.800000011920929,
                    0.800000011920929,
                    0.800000011920929,
                    1
                ],
                "metallicFactor" : 0,
                "roughnessFactor" : 0.5
            }
        }
    ],
    "meshes" : [
        {
            "name" : "Cube",
            "primitives" : [
                {
                    "attributes" : {
                        "POSITION" : 0,
                        "NORMAL" : 1,
                        "TEXCOORD_0" : 2
                    },
                    "indices" : 3,
                    "material" : 0
                },
                {
                    "attributes" : {
                        "POSITION" : 4,
                        "NORMAL" : 5,
                        "TEXCOORD_0" : 6
                    },
                    "indices" : 7,
                    "material" : 1
                },
                {
                    "attributes" : {
                        "POSITION" : 8,
                        "NORMAL" : 9,
                        "TEXCOORD_0" : 10
                    },
                    "indices" : 11,
                    "material" : 2
                }
            ]
        }
    ],
    "accessors" : [
        {
            "bufferView" : 0,
            "componentType" : 5126,
            "count" : 439,
            "max" : [
                1.056094765663147,
                0.866468071937561,
                1.2455426454544067
            ],
            "min" : [
                -1.1483657360076904,
                -0.8652199506759644,
                -1.2350456714630127
            ],
            "type" : "VEC3"
        },
        {
            "bufferView" : 1,
            "componentType" : 5126,
            "count" : 439,
            "type" : "VEC3"
        },
        {
            "bufferView" : 2,
            "componentType" : 5126,
            "count" : 439,
            "type" : "VEC2"
        },
        {
            "bufferView" : 3,
            "componentType" : 5123,
            "count" : 987,
            "type" : "SCALAR"
        },
        {
            "bufferView" : 4,
            "componentType" : 5126,
            "count" : 8,
            "max" : [
                1.056094765663147,
                0.7256301641464233,
                0.9533994197845459
            ],
            "min" : [
                -1.1483657360076904,
                -0.7215136885643005,
                -0.9528747797012329
            ],
            "type" : "VEC3"
        },
        {
            "bufferView" : 5,
            "componentType" : 5126,
            "count" : 8,
            "type" : "VEC3"
        },
        {
            "bufferView" : 6,
            "componentType" : 5126,
            "count" : 8,
            "type" : "VEC2"
        },
        {
            "bufferView" : 7,
            "componentType" : 5123,
            "count" : 12,
            "type" : "SCALAR"
        },
        {
            "bufferView" : 8,
            "componentType" : 5126,
            "count" : 337,
            "max" : [
                1.5052920579910278,
                0.5498613715171814,
                0.7825021147727966
            ],
            "min" : [
                -1.5600051879882812,
                -0.5398781299591064,
                -0.7825023531913757
            ],
            "type" : "VEC3"
        },
        {
            "bufferView" : 9,
            "componentType" : 5126,
            "count" : 337,
            "type" : "VEC3"
        },
        {
            "bufferView" : 10,
            "componentType" : 5126,
            "count" : 337,
            "type" : "VEC2"
        },
        {
            "bufferView" : 11,
            "componentType" : 5123,
            "count" : 504,
            "type" : "SCALAR"
        }
    ],
    "bufferViews" : [
        {
            "buffer" : 0,
            "byteLength" : 5268,
            "byteOffset" : 0
        },
        {
            "buffer" : 0,
            "byteLength" : 5268,
            "byteOffset" : 5268
        },
        {
            "buffer" : 0,
            "byteLength" : 3512,
            "byteOffset" : 10536
        },
        {
            "buffer" : 0,
            "byteLength" : 1974,
            "byteOffset" : 14048
        },
        {
            "buffer" : 0,
            "byteLength" : 96,
            "byteOffset" : 16024
        },
        {
            "buffer" : 0,
            "byteLength" : 96,
            "byteOffset" : 16120
        },
        {
            "buffer" : 0,
            "byteLength" : 64,
            "byteOffset" : 16216
        },
        {
            "buffer" : 0,
            "byteLength" : 24,
            "byteOffset" : 16280
        },
        {
            "buffer" : 0,
            "byteLength" : 4044,
            "byteOffset" : 16304
        },
        {
            "buffer" : 0,
            "byteLength" : 4044,
            "byteOffset" : 20348
        },
        {
            "buffer" : 0,
            "byteLength" : 2696,
            "byteOffset" : 24392
        },
        {
            "buffer" : 0,
            "byteLength" : 1008,
            "byteOffset" : 27088
        }
    ],
    "buffers" : [
        {
            "byteLength" : 28096,
            "uri" : "html5.bin"
        }
    ]
}
