{
    "asset" : {
        "generator" : "Khronos glTF Blender I/O v1.1.46",
        "version" : "2.0"
    },
    "scene" : 0,
    "scenes" : [
        {
            "name" : "Scene",
            "nodes" : [
                0
            ]
        }
    ],
    "nodes" : [
        {
            "mesh" : 0,
            "name" : "Cube",
            "scale" : [
                -0.2550012767314911,
                2.130110025405884,
                -1.312018632888794
            ],
            "translation" : [
                -0.013101935386657715,
                0,
                0
            ]
        }
    ],
    "materials" : [
        {
            "doubleSided" : true,
            "emissiveFactor" : [
                0,
                0,
                0
            ],
            "name" : "Material.003",
            "pbrMetallicRoughness" : {
                "baseColorFactor" : [
                    0.6583749651908875,
                    0.47932010889053345,
                    0.029556870460510254,
                    1
                ],
                "metallicFactor" : 0,
                "roughnessFactor" : 0.5
            }
        },
        {
            "doubleSided" : true,
            "emissiveFactor" : [
                0,
                0,
                0
            ],
            "name" : "Material.005",
            "pbrMetallicRoughness" : {
                "baseColorFactor" : [
                    0.9911020994186401,
                    0.6795424818992615,
                    0.04518625885248184,
                    1
                ],
                "metallicFactor" : 0,
                "roughnessFactor" : 0.5
            }
        },
        {
            "doubleSided" : true,
            "emissiveFactor" : [
                0,
                0,
                0
            ],
            "name" : "Material.002",
            "pbrMetallicRoughness" : {
                "baseColorFactor" : [
                    1,
                    1,
                    1,
                    1
                ],
                "metallicFactor" : 0,
                "roughnessFactor" : 0.5
            }
        },
        {
            "doubleSided" : true,
            "emissiveFactor" : [
                0,
                0,
                0
            ],
            "name" : "Material",
            "pbrMetallicRoughness" : {
                "baseColorFactor" : [
                    1,
                    1,
                    1,
                    1
                ],
                "metallicFactor" : 0,
                "roughnessFactor" : 0.5
            }
        }
    ],
    "meshes" : [
        {
            "name" : "Cube",
            "primitives" : [
                {
                    "attributes" : {
                        "POSITION" : 0,
                        "NORMAL" : 1,
                        "TEXCOORD_0" : 2
                    },
                    "indices" : 3,
                    "material" : 0
                },
                {
                    "attributes" : {
                        "POSITION" : 4,
                        "NORMAL" : 5,
                        "TEXCOORD_0" : 6
                    },
                    "indices" : 7,
                    "material" : 1
                },
                {
                    "attributes" : {
                        "POSITION" : 8,
                        "NORMAL" : 9,
                        "TEXCOORD_0" : 10
                    },
                    "indices" : 11,
                    "material" : 2
                },
                {
                    "attributes" : {
                        "POSITION" : 12,
                        "NORMAL" : 13,
                        "TEXCOORD_0" : 14
                    },
                    "indices" : 15,
                    "material" : 3
                }
            ]
        }
    ],
    "accessors" : [
        {
            "bufferView" : 0,
            "componentType" : 5126,
            "count" : 440,
            "max" : [
                1.056094765663147,
                0.866468071937561,
                1.2455426454544067
            ],
            "min" : [
                -1.1483657360076904,
                -0.8652199506759644,
                -1.2350456714630127
            ],
            "type" : "VEC3"
        },
        {
            "bufferView" : 1,
            "componentType" : 5126,
            "count" : 440,
            "type" : "VEC3"
        },
        {
            "bufferView" : 2,
            "componentType" : 5126,
            "count" : 440,
            "type" : "VEC2"
        },
        {
            "bufferView" : 3,
            "componentType" : 5123,
            "count" : 990,
            "type" : "SCALAR"
        },
        {
            "bufferView" : 4,
            "componentType" : 5126,
            "count" : 8,
            "max" : [
                1.056094765663147,
                0.7256301641464233,
                0.9533994197845459
            ],
            "min" : [
                -1.1483657360076904,
                -0.7215136885643005,
                -0.9528747797012329
            ],
            "type" : "VEC3"
        },
        {
            "bufferView" : 5,
            "componentType" : 5126,
            "count" : 8,
            "type" : "VEC3"
        },
        {
            "bufferView" : 6,
            "componentType" : 5126,
            "count" : 8,
            "type" : "VEC2"
        },
        {
            "bufferView" : 7,
            "componentType" : 5123,
            "count" : 12,
            "type" : "SCALAR"
        },
        {
            "bufferView" : 8,
            "componentType" : 5126,
            "count" : 108,
            "max" : [
                1.454164981842041,
                0.5680457353591919,
                0.8381949067115784
            ],
            "min" : [
                -1.5464359521865845,
                -0.5210998058319092,
                -0.8376701474189758
            ],
            "type" : "VEC3"
        },
        {
            "bufferView" : 9,
            "componentType" : 5126,
            "count" : 108,
            "type" : "VEC3"
        },
        {
            "bufferView" : 10,
            "componentType" : 5126,
            "count" : 108,
            "type" : "VEC2"
        },
        {
            "bufferView" : 11,
            "componentType" : 5123,
            "count" : 168,
            "type" : "SCALAR"
        },
        {
            "bufferView" : 12,
            "componentType" : 5126,
            "count" : 232,
            "max" : [
                1.454164981842041,
                0.5657655000686646,
                0.8770433068275452
            ],
            "min" : [
                -1.5464359521865845,
                -0.5205391645431519,
                -0.8765186667442322
            ],
            "type" : "VEC3"
        },
        {
            "bufferView" : 13,
            "componentType" : 5126,
            "count" : 232,
            "type" : "VEC3"
        },
        {
            "bufferView" : 14,
            "componentType" : 5126,
            "count" : 232,
            "type" : "VEC2"
        },
        {
            "bufferView" : 15,
            "componentType" : 5123,
            "count" : 408,
            "type" : "SCALAR"
        }
    ],
    "bufferViews" : [
        {
            "buffer" : 0,
            "byteLength" : 5280,
            "byteOffset" : 0
        },
        {
            "buffer" : 0,
            "byteLength" : 5280,
            "byteOffset" : 5280
        },
        {
            "buffer" : 0,
            "byteLength" : 3520,
            "byteOffset" : 10560
        },
        {
            "buffer" : 0,
            "byteLength" : 1980,
            "byteOffset" : 14080
        },
        {
            "buffer" : 0,
            "byteLength" : 96,
            "byteOffset" : 16060
        },
        {
            "buffer" : 0,
            "byteLength" : 96,
            "byteOffset" : 16156
        },
        {
            "buffer" : 0,
            "byteLength" : 64,
            "byteOffset" : 16252
        },
        {
            "buffer" : 0,
            "byteLength" : 24,
            "byteOffset" : 16316
        },
        {
            "buffer" : 0,
            "byteLength" : 1296,
            "byteOffset" : 16340
        },
        {
            "buffer" : 0,
            "byteLength" : 1296,
            "byteOffset" : 17636
        },
        {
            "buffer" : 0,
            "byteLength" : 864,
            "byteOffset" : 18932
        },
        {
            "buffer" : 0,
            "byteLength" : 336,
            "byteOffset" : 19796
        },
        {
            "buffer" : 0,
            "byteLength" : 2784,
            "byteOffset" : 20132
        },
        {
            "buffer" : 0,
            "byteLength" : 2784,
            "byteOffset" : 22916
        },
        {
            "buffer" : 0,
            "byteLength" : 1856,
            "byteOffset" : 25700
        },
        {
            "buffer" : 0,
            "byteLength" : 816,
            "byteOffset" : 27556
        }
    ],
    "buffers" : [
        {
            "byteLength" : 28372,
            "uri" : "js.bin"
        }
    ]
}
